<mxfile host="app.diagrams.net" modified="2022-12-01T17:36:00.097Z" agent="5.0 (Windows NT 10.0; Win64; x64) AppleWebKit/537.36 (KHTML, like Gecko) Chrome/107.0.0.0 Safari/537.36 OPR/93.0.0.0" etag="c2IRrVkYk2TlcewePu0_" version="20.6.0" type="github">
  <diagram id="e5wToZ6Jj2soGeOCWYj3" name="Page-1">
    <mxGraphModel dx="3729" dy="1147" grid="1" gridSize="10" guides="1" tooltips="1" connect="1" arrows="1" fold="1" page="1" pageScale="1" pageWidth="827" pageHeight="1169" math="0" shadow="0">
      <root>
        <mxCell id="0" />
        <mxCell id="1" parent="0" />
        <mxCell id="meJ3Hm6bCnbv4KWAAB1v-10" value="" style="rounded=0;whiteSpace=wrap;html=1;" parent="1" vertex="1">
          <mxGeometry x="-140" y="70" width="2250" height="928" as="geometry" />
        </mxCell>
        <mxCell id="77KCPv3B4IZZ5Z66STRk-72" style="edgeStyle=none;rounded=1;orthogonalLoop=1;jettySize=auto;html=1;strokeColor=#FF1919;" parent="1" source="77KCPv3B4IZZ5Z66STRk-35" target="77KCPv3B4IZZ5Z66STRk-59" edge="1">
          <mxGeometry relative="1" as="geometry">
            <mxPoint x="1340" y="710" as="targetPoint" />
          </mxGeometry>
        </mxCell>
        <mxCell id="77KCPv3B4IZZ5Z66STRk-73" style="edgeStyle=none;rounded=1;orthogonalLoop=1;jettySize=auto;html=1;strokeColor=#FF1919;" parent="1" source="77KCPv3B4IZZ5Z66STRk-26" target="77KCPv3B4IZZ5Z66STRk-59" edge="1">
          <mxGeometry relative="1" as="geometry">
            <Array as="points">
              <mxPoint x="870" y="590" />
            </Array>
            <mxPoint x="1100" y="660" as="targetPoint" />
          </mxGeometry>
        </mxCell>
        <mxCell id="77KCPv3B4IZZ5Z66STRk-12" style="edgeStyle=orthogonalEdgeStyle;rounded=0;orthogonalLoop=1;jettySize=auto;html=1;strokeColor=#FF1919;" parent="1" source="77KCPv3B4IZZ5Z66STRk-1" target="77KCPv3B4IZZ5Z66STRk-5" edge="1">
          <mxGeometry relative="1" as="geometry" />
        </mxCell>
        <mxCell id="90G6gJbZFidTqptF8gDu-3" style="rounded=0;orthogonalLoop=1;jettySize=auto;html=1;strokeColor=#FF1919;" parent="1" source="77KCPv3B4IZZ5Z66STRk-1" target="77KCPv3B4IZZ5Z66STRk-20" edge="1">
          <mxGeometry relative="1" as="geometry" />
        </mxCell>
        <mxCell id="tDKdMyrOGzaEZXIqc7HQ-4" style="rounded=0;orthogonalLoop=1;jettySize=auto;html=1;strokeColor=#FF1919;" parent="1" source="77KCPv3B4IZZ5Z66STRk-1" target="tDKdMyrOGzaEZXIqc7HQ-1" edge="1">
          <mxGeometry relative="1" as="geometry" />
        </mxCell>
        <mxCell id="77KCPv3B4IZZ5Z66STRk-1" value="ALERTA_RECIBIDA" style="swimlane;html=1;fontStyle=1;align=center;verticalAlign=middle;childLayout=stackLayout;horizontal=1;startSize=30;horizontalStack=0;resizeParent=0;resizeLast=1;container=0;fontColor=#000000;collapsible=0;rounded=1;arcSize=30;strokeColor=#ff0000;fillColor=#ffffc0;swimlaneFillColor=#ffffc0;dropTarget=0;" parent="1" vertex="1">
          <mxGeometry x="100" y="320" width="210" height="70" as="geometry" />
        </mxCell>
        <mxCell id="77KCPv3B4IZZ5Z66STRk-2" value="Recibido de Lynx" style="text;html=1;strokeColor=none;fillColor=none;align=center;verticalAlign=middle;spacingLeft=4;spacingRight=4;whiteSpace=wrap;overflow=hidden;rotatable=0;fontColor=#000000;" parent="77KCPv3B4IZZ5Z66STRk-1" vertex="1">
          <mxGeometry y="30" width="210" height="40" as="geometry" />
        </mxCell>
        <mxCell id="fLqlD2cx_nLfpuTeQDXq-3" style="edgeStyle=orthogonalEdgeStyle;rounded=0;orthogonalLoop=1;jettySize=auto;html=1;entryX=0;entryY=0.125;entryDx=0;entryDy=0;entryPerimeter=0;strokeColor=#FF1919;" parent="1" source="77KCPv3B4IZZ5Z66STRk-5" target="77KCPv3B4IZZ5Z66STRk-9" edge="1">
          <mxGeometry relative="1" as="geometry" />
        </mxCell>
        <mxCell id="77KCPv3B4IZZ5Z66STRk-5" value="ALERTA_TARJETA" style="swimlane;html=1;fontStyle=1;align=center;verticalAlign=middle;childLayout=stackLayout;horizontal=1;startSize=30;horizontalStack=0;resizeParent=0;resizeLast=1;container=0;fontColor=#000000;collapsible=0;rounded=1;arcSize=30;strokeColor=#ff0000;fillColor=#ffffc0;swimlaneFillColor=#ffffc0;dropTarget=0;" parent="1" vertex="1">
          <mxGeometry x="390" y="320" width="210" height="70" as="geometry" />
        </mxCell>
        <mxCell id="77KCPv3B4IZZ5Z66STRk-6" value="Datos completos api&amp;nbsp;tarjeta" style="text;html=1;strokeColor=none;fillColor=none;align=center;verticalAlign=middle;spacingLeft=4;spacingRight=4;whiteSpace=wrap;overflow=hidden;rotatable=0;fontColor=#000000;" parent="77KCPv3B4IZZ5Z66STRk-5" vertex="1">
          <mxGeometry y="30" width="210" height="40" as="geometry" />
        </mxCell>
        <mxCell id="77KCPv3B4IZZ5Z66STRk-14" style="edgeStyle=orthogonalEdgeStyle;rounded=0;orthogonalLoop=1;jettySize=auto;html=1;jumpStyle=arc;strokeColor=#FF1919;" parent="1" source="77KCPv3B4IZZ5Z66STRk-8" target="77KCPv3B4IZZ5Z66STRk-10" edge="1">
          <mxGeometry relative="1" as="geometry" />
        </mxCell>
        <mxCell id="77KCPv3B4IZZ5Z66STRk-25" style="edgeStyle=none;rounded=0;orthogonalLoop=1;jettySize=auto;html=1;strokeColor=#FF1919;" parent="1" source="77KCPv3B4IZZ5Z66STRk-8" target="77KCPv3B4IZZ5Z66STRk-20" edge="1">
          <mxGeometry relative="1" as="geometry" />
        </mxCell>
        <mxCell id="77KCPv3B4IZZ5Z66STRk-28" style="edgeStyle=none;rounded=0;orthogonalLoop=1;jettySize=auto;html=1;exitX=0.794;exitY=-0.033;exitDx=0;exitDy=0;exitPerimeter=0;strokeColor=#FF1919;" parent="1" source="77KCPv3B4IZZ5Z66STRk-8" target="77KCPv3B4IZZ5Z66STRk-26" edge="1">
          <mxGeometry relative="1" as="geometry" />
        </mxCell>
        <mxCell id="77KCPv3B4IZZ5Z66STRk-8" value="ALERTA_PERSONA" style="swimlane;html=1;fontStyle=1;align=center;verticalAlign=middle;childLayout=stackLayout;horizontal=1;startSize=30;horizontalStack=0;resizeParent=0;resizeLast=1;container=0;fontColor=#000000;collapsible=0;rounded=1;arcSize=30;strokeColor=#ff0000;fillColor=#ffffc0;swimlaneFillColor=#ffffc0;dropTarget=0;" parent="1" vertex="1">
          <mxGeometry x="650" y="320" width="210" height="70" as="geometry" />
        </mxCell>
        <mxCell id="77KCPv3B4IZZ5Z66STRk-9" value="Datos completos api persona" style="text;html=1;strokeColor=none;fillColor=none;align=center;verticalAlign=middle;spacingLeft=4;spacingRight=4;whiteSpace=wrap;overflow=hidden;rotatable=0;fontColor=#000000;" parent="77KCPv3B4IZZ5Z66STRk-8" vertex="1">
          <mxGeometry y="30" width="210" height="40" as="geometry" />
        </mxCell>
        <mxCell id="77KCPv3B4IZZ5Z66STRk-33" style="edgeStyle=none;rounded=0;orthogonalLoop=1;jettySize=auto;html=1;strokeColor=#FF1919;" parent="1" source="77KCPv3B4IZZ5Z66STRk-10" target="77KCPv3B4IZZ5Z66STRk-29" edge="1">
          <mxGeometry relative="1" as="geometry" />
        </mxCell>
        <mxCell id="77KCPv3B4IZZ5Z66STRk-34" style="edgeStyle=none;rounded=0;orthogonalLoop=1;jettySize=auto;html=1;strokeColor=#FF1919;" parent="1" source="77KCPv3B4IZZ5Z66STRk-10" target="77KCPv3B4IZZ5Z66STRk-31" edge="1">
          <mxGeometry relative="1" as="geometry" />
        </mxCell>
        <mxCell id="SPsXiou8FZaf5zSpWh6t-2" style="rounded=0;orthogonalLoop=1;jettySize=auto;html=1;entryX=0;entryY=0.75;entryDx=0;entryDy=0;strokeColor=#FF1919;" parent="1" source="77KCPv3B4IZZ5Z66STRk-10" target="SPsXiou8FZaf5zSpWh6t-1" edge="1">
          <mxGeometry relative="1" as="geometry">
            <mxPoint x="1549.9999999999995" y="149.9999999999999" as="targetPoint" />
          </mxGeometry>
        </mxCell>
        <mxCell id="77KCPv3B4IZZ5Z66STRk-10" value="ALERTA_COMPLETA" style="swimlane;html=1;fontStyle=1;align=center;verticalAlign=middle;childLayout=stackLayout;horizontal=1;startSize=30;horizontalStack=0;resizeParent=0;resizeLast=1;container=0;fontColor=#000000;collapsible=0;rounded=1;arcSize=30;strokeColor=#ff0000;fillColor=#ffffc0;swimlaneFillColor=#ffffc0;dropTarget=0;" parent="1" vertex="1">
          <mxGeometry x="990" y="320" width="210" height="70" as="geometry" />
        </mxCell>
        <mxCell id="fLqlD2cx_nLfpuTeQDXq-1" value="Datos completos api address y se puede enviar a FICO" style="text;html=1;strokeColor=none;fillColor=none;align=center;verticalAlign=middle;spacingLeft=4;spacingRight=4;whiteSpace=wrap;overflow=hidden;rotatable=0;fontColor=#000000;" parent="77KCPv3B4IZZ5Z66STRk-10" vertex="1">
          <mxGeometry y="30" width="210" height="40" as="geometry" />
        </mxCell>
        <mxCell id="77KCPv3B4IZZ5Z66STRk-20" value="ALERTA_API_CORE_NO_RESPONDE" style="swimlane;html=1;fontStyle=1;align=center;verticalAlign=middle;childLayout=stackLayout;horizontal=1;startSize=30;horizontalStack=0;resizeParent=0;resizeLast=1;container=0;collapsible=0;rounded=1;arcSize=30;strokeColor=#006EAF;fillColor=#1ba1e2;swimlaneFillColor=#ffffc0;dropTarget=0;fontColor=#ffffff;" parent="1" vertex="1">
          <mxGeometry x="500" y="450" width="250" height="70" as="geometry" />
        </mxCell>
        <mxCell id="77KCPv3B4IZZ5Z66STRk-21" value="api cards, credit-card, person, address&lt;br&gt;Cod Lynx: -0516 [BEDC]" style="text;html=1;strokeColor=none;fillColor=none;align=center;verticalAlign=middle;spacingLeft=4;spacingRight=4;whiteSpace=wrap;overflow=hidden;rotatable=0;fontColor=#000000;" parent="77KCPv3B4IZZ5Z66STRk-20" vertex="1">
          <mxGeometry y="30" width="250" height="40" as="geometry" />
        </mxCell>
        <mxCell id="77KCPv3B4IZZ5Z66STRk-26" value="ALERTA_SIN_DATOS_CONTACTO" style="swimlane;html=1;fontStyle=1;align=center;verticalAlign=middle;childLayout=stackLayout;horizontal=1;startSize=30;horizontalStack=0;resizeParent=0;resizeLast=1;container=0;fontColor=#ffffff;collapsible=0;rounded=1;arcSize=30;strokeColor=#006EAF;fillColor=#1ba1e2;swimlaneFillColor=#ffffc0;dropTarget=0;" parent="1" vertex="1">
          <mxGeometry x="760" y="160" width="220" height="70" as="geometry" />
        </mxCell>
        <mxCell id="77KCPv3B4IZZ5Z66STRk-27" value="Alerta no tiene nro telefono&lt;br&gt;CodLynx: -0510 [BICC]" style="text;html=1;strokeColor=none;fillColor=none;align=center;verticalAlign=middle;spacingLeft=4;spacingRight=4;whiteSpace=wrap;overflow=hidden;rotatable=0;fontColor=#000000;" parent="77KCPv3B4IZZ5Z66STRk-26" vertex="1">
          <mxGeometry y="30" width="220" height="40" as="geometry" />
        </mxCell>
        <mxCell id="fLqlD2cx_nLfpuTeQDXq-5" value="Alerta no tiene nro telefono&lt;br&gt;CodLynx: -0510 [BICC]" style="text;html=1;strokeColor=none;fillColor=none;align=center;verticalAlign=middle;spacingLeft=4;spacingRight=4;whiteSpace=wrap;overflow=hidden;rotatable=0;fontColor=#000000;" parent="77KCPv3B4IZZ5Z66STRk-26" vertex="1">
          <mxGeometry y="70" width="220" as="geometry" />
        </mxCell>
        <mxCell id="77KCPv3B4IZZ5Z66STRk-29" value="ALERTA_DATOS_RECIENTES" style="swimlane;html=1;fontStyle=1;align=center;verticalAlign=middle;childLayout=stackLayout;horizontal=1;startSize=30;horizontalStack=0;resizeParent=0;resizeLast=1;container=0;fontColor=#ffffff;collapsible=0;rounded=1;arcSize=30;strokeColor=#006EAF;fillColor=#1ba1e2;swimlaneFillColor=#ffffc0;dropTarget=0;" parent="1" vertex="1">
          <mxGeometry x="1230" y="420" width="210" height="70" as="geometry" />
        </mxCell>
        <mxCell id="77KCPv3B4IZZ5Z66STRk-30" value="Actualización de datos Reciente&lt;br&gt;CodLynx: (-0515) [BDR]" style="text;html=1;strokeColor=none;fillColor=none;align=center;verticalAlign=middle;spacingLeft=4;spacingRight=4;whiteSpace=wrap;overflow=hidden;rotatable=0;fontColor=#000000;" parent="77KCPv3B4IZZ5Z66STRk-29" vertex="1">
          <mxGeometry y="30" width="210" height="40" as="geometry" />
        </mxCell>
        <mxCell id="77KCPv3B4IZZ5Z66STRk-41" style="edgeStyle=none;rounded=0;orthogonalLoop=1;jettySize=auto;html=1;strokeColor=#FF1919;" parent="1" source="77KCPv3B4IZZ5Z66STRk-31" target="77KCPv3B4IZZ5Z66STRk-35" edge="1">
          <mxGeometry relative="1" as="geometry" />
        </mxCell>
        <mxCell id="77KCPv3B4IZZ5Z66STRk-42" style="edgeStyle=none;rounded=0;orthogonalLoop=1;jettySize=auto;html=1;strokeColor=#FF1919;" parent="1" source="77KCPv3B4IZZ5Z66STRk-31" target="77KCPv3B4IZZ5Z66STRk-37" edge="1">
          <mxGeometry relative="1" as="geometry">
            <mxPoint x="1597" y="327.6470588235293" as="sourcePoint" />
          </mxGeometry>
        </mxCell>
        <mxCell id="77KCPv3B4IZZ5Z66STRk-43" style="edgeStyle=none;rounded=0;orthogonalLoop=1;jettySize=auto;html=1;strokeColor=#FF1919;" parent="1" source="77KCPv3B4IZZ5Z66STRk-31" target="77KCPv3B4IZZ5Z66STRk-39" edge="1">
          <mxGeometry relative="1" as="geometry">
            <mxPoint x="1597" y="350" as="sourcePoint" />
          </mxGeometry>
        </mxCell>
        <mxCell id="77KCPv3B4IZZ5Z66STRk-31" value="ENVIADO_SMS" style="swimlane;html=1;fontStyle=1;align=center;verticalAlign=middle;childLayout=stackLayout;horizontal=1;startSize=30;horizontalStack=0;resizeParent=0;resizeLast=1;container=0;fontColor=#000000;collapsible=0;rounded=1;arcSize=30;strokeColor=#ff0000;swimlaneFillColor=#ffffc0;dropTarget=0;fillColor=#FFFFC0;" parent="1" vertex="1">
          <mxGeometry x="1250" y="320" width="210" height="70" as="geometry" />
        </mxCell>
        <mxCell id="DF0V8rczd2MYBJeqJLXW-1" value="Alerta fue recibida por FICO" style="text;html=1;strokeColor=none;fillColor=none;align=center;verticalAlign=middle;spacingLeft=4;spacingRight=4;whiteSpace=wrap;overflow=hidden;rotatable=0;fontColor=#000000;" parent="77KCPv3B4IZZ5Z66STRk-31" vertex="1">
          <mxGeometry y="30" width="210" height="40" as="geometry" />
        </mxCell>
        <mxCell id="77KCPv3B4IZZ5Z66STRk-35" value="ALERTA_CERRADA" style="swimlane;html=1;fontStyle=1;align=center;verticalAlign=middle;childLayout=stackLayout;horizontal=1;startSize=30;horizontalStack=0;resizeParent=0;resizeLast=1;container=0;fontColor=#ffffff;collapsible=0;rounded=1;arcSize=30;strokeColor=#006EAF;fillColor=#1ba1e2;swimlaneFillColor=#ffffc0;dropTarget=0;" parent="1" vertex="1">
          <mxGeometry x="1770" y="320" width="210" height="70" as="geometry" />
        </mxCell>
        <mxCell id="77KCPv3B4IZZ5Z66STRk-36" value="Cliente Responde 1 (No fraude)&lt;br&gt;CodLynx: (-0509) [BNF]" style="text;html=1;strokeColor=none;fillColor=none;align=center;verticalAlign=middle;spacingLeft=4;spacingRight=4;whiteSpace=wrap;overflow=hidden;rotatable=0;fontColor=#000000;" parent="77KCPv3B4IZZ5Z66STRk-35" vertex="1">
          <mxGeometry y="30" width="210" height="40" as="geometry" />
        </mxCell>
        <mxCell id="DF0V8rczd2MYBJeqJLXW-4" style="rounded=0;orthogonalLoop=1;jettySize=auto;html=1;exitX=0;exitY=0.5;exitDx=0;exitDy=0;entryX=0.5;entryY=0;entryDx=0;entryDy=0;strokeColor=#FF1919;" parent="1" source="77KCPv3B4IZZ5Z66STRk-38" target="DF0V8rczd2MYBJeqJLXW-2" edge="1">
          <mxGeometry relative="1" as="geometry" />
        </mxCell>
        <mxCell id="DF0V8rczd2MYBJeqJLXW-9" style="edgeStyle=none;rounded=0;orthogonalLoop=1;jettySize=auto;html=1;entryX=0.5;entryY=0;entryDx=0;entryDy=0;strokeColor=#FF1919;" parent="1" source="77KCPv3B4IZZ5Z66STRk-37" target="DF0V8rczd2MYBJeqJLXW-7" edge="1">
          <mxGeometry relative="1" as="geometry" />
        </mxCell>
        <mxCell id="77KCPv3B4IZZ5Z66STRk-37" value="&lt;font color=&quot;#000000&quot;&gt;ALERTA_CONTACTADA&lt;/font&gt;" style="swimlane;html=1;fontStyle=1;align=center;verticalAlign=middle;childLayout=stackLayout;horizontal=1;startSize=30;horizontalStack=0;resizeParent=0;resizeLast=1;container=0;fontColor=#ffffff;collapsible=0;rounded=1;arcSize=30;swimlaneFillColor=#ffffc0;dropTarget=0;fillColor=#FFFFC0;strokeColor=#FF0000;" parent="1" vertex="1">
          <mxGeometry x="1880" y="430" width="210" height="70" as="geometry" />
        </mxCell>
        <mxCell id="77KCPv3B4IZZ5Z66STRk-38" value="Cliente responde 2 (Fraude)&lt;br&gt;CodLynx:&amp;nbsp;(-0517) [BPNR]" style="text;html=1;strokeColor=none;fillColor=none;align=center;verticalAlign=middle;spacingLeft=4;spacingRight=4;whiteSpace=wrap;overflow=hidden;rotatable=0;fontColor=#000000;" parent="77KCPv3B4IZZ5Z66STRk-37" vertex="1">
          <mxGeometry y="30" width="210" height="40" as="geometry" />
        </mxCell>
        <mxCell id="77KCPv3B4IZZ5Z66STRk-70" style="edgeStyle=none;rounded=0;orthogonalLoop=1;jettySize=auto;html=1;strokeColor=#FF1919;" parent="1" source="3atjrFzW7oZnoOp0wOfv-2" target="77KCPv3B4IZZ5Z66STRk-59" edge="1">
          <mxGeometry relative="1" as="geometry">
            <mxPoint x="1310" y="700" as="targetPoint" />
          </mxGeometry>
        </mxCell>
        <mxCell id="dr77cnrp0Dk-WK7C_Hbr-10" style="edgeStyle=none;rounded=0;orthogonalLoop=1;jettySize=auto;html=1;entryX=0.5;entryY=0;entryDx=0;entryDy=0;strokeColor=#FF1919;" parent="1" source="77KCPv3B4IZZ5Z66STRk-39" target="3atjrFzW7oZnoOp0wOfv-2" edge="1">
          <mxGeometry relative="1" as="geometry" />
        </mxCell>
        <mxCell id="3atjrFzW7oZnoOp0wOfv-4" style="rounded=0;orthogonalLoop=1;jettySize=auto;html=1;strokeColor=#FF1919;" parent="1" source="77KCPv3B4IZZ5Z66STRk-39" target="dr77cnrp0Dk-WK7C_Hbr-8" edge="1">
          <mxGeometry relative="1" as="geometry" />
        </mxCell>
        <mxCell id="77KCPv3B4IZZ5Z66STRk-39" value="&lt;font color=&quot;#000000&quot;&gt;ALERTA_NO_CONTACTADA&lt;/font&gt;" style="swimlane;html=1;fontStyle=1;align=center;verticalAlign=middle;childLayout=stackLayout;horizontal=1;startSize=30;horizontalStack=0;resizeParent=0;resizeLast=1;container=0;fontColor=#ffffff;collapsible=0;rounded=1;arcSize=30;swimlaneFillColor=#ffffc0;dropTarget=0;fillColor=#FFFFC0;strokeColor=#FF0000;" parent="1" vertex="1">
          <mxGeometry x="1500" y="90" width="260" height="70" as="geometry" />
        </mxCell>
        <mxCell id="SPsXiou8FZaf5zSpWh6t-1" value="Numero inválido (-1), cliente no responde (0)&lt;br&gt;CodLynx:&amp;nbsp;(-0510) [BICC]" style="text;html=1;strokeColor=none;fillColor=none;align=center;verticalAlign=middle;spacingLeft=4;spacingRight=4;whiteSpace=wrap;overflow=hidden;rotatable=0;fontColor=#000000;" parent="77KCPv3B4IZZ5Z66STRk-39" vertex="1">
          <mxGeometry y="30" width="260" height="40" as="geometry" />
        </mxCell>
        <mxCell id="P6Ppndu3YUtAiaM16hDx-5" style="edgeStyle=none;rounded=1;orthogonalLoop=1;jettySize=auto;html=1;strokeColor=#FF1919;" parent="1" source="77KCPv3B4IZZ5Z66STRk-44" target="P6Ppndu3YUtAiaM16hDx-4" edge="1">
          <mxGeometry relative="1" as="geometry" />
        </mxCell>
        <mxCell id="77KCPv3B4IZZ5Z66STRk-44" value="ALERTA_CALIFICADA" style="swimlane;html=1;fontStyle=1;align=center;verticalAlign=middle;childLayout=stackLayout;horizontal=1;startSize=30;horizontalStack=0;resizeParent=0;resizeLast=1;container=0;fontColor=#000000;collapsible=0;rounded=1;arcSize=30;strokeColor=#ff0000;fillColor=#ffffc0;swimlaneFillColor=#ffffc0;dropTarget=0;" parent="1" vertex="1">
          <mxGeometry x="1115" y="860" width="190" height="60" as="geometry" />
        </mxCell>
        <mxCell id="77KCPv3B4IZZ5Z66STRk-45" value="Respuesta satisfactoria Lynx" style="text;html=1;strokeColor=none;fillColor=none;align=center;verticalAlign=middle;spacingLeft=4;spacingRight=4;whiteSpace=wrap;overflow=hidden;rotatable=0;fontColor=#000000;" parent="77KCPv3B4IZZ5Z66STRk-44" vertex="1">
          <mxGeometry y="30" width="190" height="30" as="geometry" />
        </mxCell>
        <mxCell id="77KCPv3B4IZZ5Z66STRk-66" style="edgeStyle=none;rounded=0;orthogonalLoop=1;jettySize=auto;html=1;entryX=0.5;entryY=0;entryDx=0;entryDy=0;strokeColor=#FF1919;" parent="1" source="77KCPv3B4IZZ5Z66STRk-59" target="77KCPv3B4IZZ5Z66STRk-44" edge="1">
          <mxGeometry relative="1" as="geometry" />
        </mxCell>
        <mxCell id="77KCPv3B4IZZ5Z66STRk-59" value="" style="shape=line;html=1;strokeWidth=6;strokeColor=#ff0000;" parent="1" vertex="1">
          <mxGeometry x="1110" y="810" width="200" height="10" as="geometry" />
        </mxCell>
        <mxCell id="77KCPv3B4IZZ5Z66STRk-65" style="edgeStyle=none;rounded=0;orthogonalLoop=1;jettySize=auto;html=1;strokeColor=#FF1919;" parent="1" source="77KCPv3B4IZZ5Z66STRk-21" target="77KCPv3B4IZZ5Z66STRk-59" edge="1">
          <mxGeometry relative="1" as="geometry">
            <mxPoint x="1050" y="720" as="targetPoint" />
          </mxGeometry>
        </mxCell>
        <mxCell id="P6Ppndu3YUtAiaM16hDx-4" value="" style="ellipse;html=1;shape=endState;fillColor=#000000;strokeColor=#ff0000;" parent="1" vertex="1">
          <mxGeometry x="1195" y="960" width="30" height="30" as="geometry" />
        </mxCell>
        <mxCell id="meJ3Hm6bCnbv4KWAAB1v-3" style="rounded=0;orthogonalLoop=1;jettySize=auto;html=1;entryX=0;entryY=0.25;entryDx=0;entryDy=0;strokeColor=#FF1919;" parent="1" source="P6Ppndu3YUtAiaM16hDx-6" target="meJ3Hm6bCnbv4KWAAB1v-2" edge="1">
          <mxGeometry relative="1" as="geometry" />
        </mxCell>
        <mxCell id="meJ3Hm6bCnbv4KWAAB1v-4" value="Enviar Caso&lt;br&gt;caseMessageType: AN, AU&lt;br&gt;lynxResponseStatus: -0503" style="edgeLabel;html=1;align=center;verticalAlign=middle;resizable=0;points=[];" parent="meJ3Hm6bCnbv4KWAAB1v-3" vertex="1" connectable="0">
          <mxGeometry x="0.1161" relative="1" as="geometry">
            <mxPoint as="offset" />
          </mxGeometry>
        </mxCell>
        <mxCell id="P6Ppndu3YUtAiaM16hDx-6" value="" style="ellipse;html=1;shape=startState;fillColor=#000000;strokeColor=#ff0000;" parent="1" vertex="1">
          <mxGeometry x="-120" y="340" width="30" height="30" as="geometry" />
        </mxCell>
        <mxCell id="P6Ppndu3YUtAiaM16hDx-7" value="caseMessageType = AN" style="edgeStyle=orthogonalEdgeStyle;html=1;verticalAlign=bottom;endArrow=open;endSize=8;strokeColor=#ff0000;" parent="1" source="P6Ppndu3YUtAiaM16hDx-6" target="77KCPv3B4IZZ5Z66STRk-1" edge="1">
          <mxGeometry relative="1" as="geometry">
            <mxPoint x="145" y="300" as="targetPoint" />
          </mxGeometry>
        </mxCell>
        <mxCell id="dr77cnrp0Dk-WK7C_Hbr-3" value="***No deben ingresar alertas fuera&#xa;de los segmentos permitidos.*** &#xa;(No se hara validacion de segmentos)&#xa;" style="text;strokeColor=none;fillColor=none;fontSize=12;fontStyle=1;verticalAlign=middle;align=center;spacing=0;labelPosition=center;verticalLabelPosition=middle;" parent="1" vertex="1">
          <mxGeometry x="-60" y="760" width="290" height="40" as="geometry" />
        </mxCell>
        <mxCell id="dr77cnrp0Dk-WK7C_Hbr-11" style="edgeStyle=none;rounded=0;orthogonalLoop=1;jettySize=auto;html=1;strokeColor=#FF1919;" parent="1" source="dr77cnrp0Dk-WK7C_Hbr-8" target="77KCPv3B4IZZ5Z66STRk-59" edge="1">
          <mxGeometry relative="1" as="geometry">
            <mxPoint x="1260" y="670" as="targetPoint" />
          </mxGeometry>
        </mxCell>
        <mxCell id="dr77cnrp0Dk-WK7C_Hbr-8" value="ERROR_ENVIO_EMAIL" style="swimlane;html=1;fontStyle=1;align=center;verticalAlign=middle;childLayout=stackLayout;horizontal=1;startSize=30;horizontalStack=0;resizeParent=0;resizeLast=1;container=0;collapsible=0;rounded=1;arcSize=30;strokeColor=#006EAF;fillColor=#1ba1e2;swimlaneFillColor=#ffffc0;dropTarget=0;fontColor=#ffffff;" parent="1" vertex="1">
          <mxGeometry x="1500" y="230" width="210" height="70" as="geometry" />
        </mxCell>
        <mxCell id="dr77cnrp0Dk-WK7C_Hbr-9" value="Api envio Email no responde&lt;br&gt;" style="text;html=1;strokeColor=none;fillColor=none;align=center;verticalAlign=middle;spacingLeft=4;spacingRight=4;whiteSpace=wrap;overflow=hidden;rotatable=0;fontColor=#000000;" parent="dr77cnrp0Dk-WK7C_Hbr-8" vertex="1">
          <mxGeometry y="30" width="210" height="40" as="geometry" />
        </mxCell>
        <mxCell id="3atjrFzW7oZnoOp0wOfv-2" value="ENVIADO_EMAIL" style="swimlane;html=1;fontStyle=1;align=center;verticalAlign=middle;childLayout=stackLayout;horizontal=1;startSize=30;horizontalStack=0;resizeParent=0;resizeLast=1;container=0;collapsible=0;rounded=1;arcSize=30;strokeColor=#006EAF;fillColor=#1ba1e2;swimlaneFillColor=#ffffc0;dropTarget=0;fontColor=#ffffff;" parent="1" vertex="1">
          <mxGeometry x="1720" y="230" width="210" height="70" as="geometry" />
        </mxCell>
        <mxCell id="SPsXiou8FZaf5zSpWh6t-3" value="Email envío satisfactorio&lt;br&gt;" style="text;html=1;strokeColor=none;fillColor=none;align=center;verticalAlign=middle;spacingLeft=4;spacingRight=4;whiteSpace=wrap;overflow=hidden;rotatable=0;fontColor=#000000;" parent="3atjrFzW7oZnoOp0wOfv-2" vertex="1">
          <mxGeometry y="30" width="210" height="40" as="geometry" />
        </mxCell>
        <mxCell id="DF0V8rczd2MYBJeqJLXW-2" value="ENVIADO_BLOQUEO_TARJETA" style="swimlane;html=1;fontStyle=1;align=center;verticalAlign=middle;childLayout=stackLayout;horizontal=1;startSize=30;horizontalStack=0;resizeParent=0;resizeLast=1;container=0;fontColor=#ffffff;collapsible=0;rounded=1;arcSize=30;strokeColor=#006EAF;fillColor=#1ba1e2;swimlaneFillColor=#ffffc0;dropTarget=0;" parent="1" vertex="1">
          <mxGeometry x="1640" y="530" width="210" height="70" as="geometry" />
        </mxCell>
        <mxCell id="DF0V8rczd2MYBJeqJLXW-3" value="email de bloqueo a DigitalOps&lt;br&gt;" style="text;html=1;strokeColor=none;fillColor=none;align=center;verticalAlign=middle;spacingLeft=4;spacingRight=4;whiteSpace=wrap;overflow=hidden;rotatable=0;fontColor=#000000;" parent="DF0V8rczd2MYBJeqJLXW-2" vertex="1">
          <mxGeometry y="30" width="210" height="40" as="geometry" />
        </mxCell>
        <mxCell id="DF0V8rczd2MYBJeqJLXW-5" style="rounded=0;orthogonalLoop=1;jettySize=auto;html=1;exitX=0;exitY=0.5;exitDx=0;exitDy=0;strokeColor=#FF1919;" parent="1" source="DF0V8rczd2MYBJeqJLXW-3" target="77KCPv3B4IZZ5Z66STRk-59" edge="1">
          <mxGeometry relative="1" as="geometry">
            <mxPoint x="1370" y="730" as="targetPoint" />
          </mxGeometry>
        </mxCell>
        <mxCell id="DF0V8rczd2MYBJeqJLXW-7" value="ERROR_ENVIO_BLOQUEO_TARJETA" style="swimlane;html=1;fontStyle=1;align=center;verticalAlign=middle;childLayout=stackLayout;horizontal=1;startSize=30;horizontalStack=0;resizeParent=0;resizeLast=1;container=0;fontColor=#ffffff;collapsible=0;rounded=1;arcSize=30;strokeColor=#006EAF;fillColor=#1ba1e2;swimlaneFillColor=#ffffc0;dropTarget=0;" parent="1" vertex="1">
          <mxGeometry x="1720" y="610" width="240" height="70" as="geometry" />
        </mxCell>
        <mxCell id="DF0V8rczd2MYBJeqJLXW-8" value="Api DigitalOps no responde&lt;br&gt;" style="text;html=1;strokeColor=none;fillColor=none;align=center;verticalAlign=middle;spacingLeft=4;spacingRight=4;whiteSpace=wrap;overflow=hidden;rotatable=0;fontColor=#000000;" parent="DF0V8rczd2MYBJeqJLXW-7" vertex="1">
          <mxGeometry y="30" width="240" height="40" as="geometry" />
        </mxCell>
        <mxCell id="DF0V8rczd2MYBJeqJLXW-10" style="edgeStyle=none;rounded=0;orthogonalLoop=1;jettySize=auto;html=1;exitX=0;exitY=0.25;exitDx=0;exitDy=0;strokeColor=#FF1919;" parent="1" source="DF0V8rczd2MYBJeqJLXW-8" target="77KCPv3B4IZZ5Z66STRk-59" edge="1">
          <mxGeometry relative="1" as="geometry">
            <mxPoint x="1410" y="770" as="targetPoint" />
          </mxGeometry>
        </mxCell>
        <mxCell id="V9uZnK_i6f8zGeLkOwlv-1" value="&lt;font style=&quot;font-size: 12px&quot;&gt;&lt;br&gt;&lt;/font&gt;" style="text;strokeColor=none;fillColor=none;html=1;fontSize=24;fontStyle=1;verticalAlign=middle;align=center;" parent="1" vertex="1">
          <mxGeometry x="140" y="530" width="290" height="30" as="geometry" />
        </mxCell>
        <mxCell id="90G6gJbZFidTqptF8gDu-5" style="edgeStyle=none;rounded=0;orthogonalLoop=1;jettySize=auto;html=1;entryX=0.25;entryY=0;entryDx=0;entryDy=0;strokeColor=#FF1919;" parent="1" source="77KCPv3B4IZZ5Z66STRk-6" target="77KCPv3B4IZZ5Z66STRk-20" edge="1">
          <mxGeometry relative="1" as="geometry" />
        </mxCell>
        <mxCell id="fyI6EhqjK9DCoRPXTvLA-15" value="" style="group" parent="1" vertex="1" connectable="0">
          <mxGeometry x="-130" y="790" width="365" height="190" as="geometry" />
        </mxCell>
        <mxCell id="fyI6EhqjK9DCoRPXTvLA-3" value="" style="rounded=0;whiteSpace=wrap;html=1;" parent="fyI6EhqjK9DCoRPXTvLA-15" vertex="1">
          <mxGeometry y="30" width="365" height="160" as="geometry" />
        </mxCell>
        <mxCell id="fyI6EhqjK9DCoRPXTvLA-4" value="" style="swimlane;html=1;fontStyle=1;align=center;verticalAlign=middle;childLayout=stackLayout;horizontal=1;startSize=10;horizontalStack=0;resizeParent=0;resizeLast=1;container=0;fontColor=#ffffff;collapsible=0;rounded=1;arcSize=30;strokeColor=#006EAF;fillColor=#1ba1e2;swimlaneFillColor=#ffffc0;dropTarget=0;" parent="fyI6EhqjK9DCoRPXTvLA-15" vertex="1">
          <mxGeometry x="15" y="40" width="110" height="30" as="geometry" />
        </mxCell>
        <mxCell id="fyI6EhqjK9DCoRPXTvLA-6" value="" style="swimlane;html=1;fontStyle=1;align=center;verticalAlign=middle;childLayout=stackLayout;horizontal=1;startSize=10;horizontalStack=0;resizeParent=0;resizeLast=1;container=0;fontColor=#000000;collapsible=0;rounded=1;arcSize=30;strokeColor=#ff0000;fillColor=#ffffc0;swimlaneFillColor=#ffffc0;dropTarget=0;" parent="fyI6EhqjK9DCoRPXTvLA-15" vertex="1">
          <mxGeometry x="15" y="80" width="110" height="30" as="geometry" />
        </mxCell>
        <mxCell id="fyI6EhqjK9DCoRPXTvLA-8" value="&lt;font style=&quot;font-size: 12px&quot;&gt;Estados Semi-Finales (flujo Normal)&lt;br&gt;&lt;/font&gt;" style="text;strokeColor=none;fillColor=none;html=1;fontSize=24;fontStyle=1;verticalAlign=middle;align=left;fontColor=#999999;" parent="fyI6EhqjK9DCoRPXTvLA-15" vertex="1">
          <mxGeometry x="135" y="40" width="220" height="30" as="geometry" />
        </mxCell>
        <mxCell id="fyI6EhqjK9DCoRPXTvLA-9" value="&lt;font style=&quot;font-size: 12px&quot;&gt;Estados en transición&lt;br&gt;&lt;/font&gt;" style="text;strokeColor=none;fillColor=none;html=1;fontSize=24;fontStyle=1;verticalAlign=middle;align=left;spacing=2;strokeWidth=1;horizontal=1;fontColor=#999999;" parent="fyI6EhqjK9DCoRPXTvLA-15" vertex="1">
          <mxGeometry x="135" y="80" width="220" height="30" as="geometry" />
        </mxCell>
        <mxCell id="fyI6EhqjK9DCoRPXTvLA-10" value="&lt;font style=&quot;font-size: 12px&quot;&gt;LEYENDA&lt;br&gt;&lt;/font&gt;" style="text;strokeColor=none;fillColor=none;html=1;fontSize=24;fontStyle=5;verticalAlign=middle;align=left;" parent="fyI6EhqjK9DCoRPXTvLA-15" vertex="1">
          <mxGeometry width="220" height="30" as="geometry" />
        </mxCell>
        <mxCell id="fyI6EhqjK9DCoRPXTvLA-11" value="" style="ellipse;html=1;shape=startState;fillColor=#000000;strokeColor=#ff0000;" parent="fyI6EhqjK9DCoRPXTvLA-15" vertex="1">
          <mxGeometry x="55" y="117" width="30" height="30" as="geometry" />
        </mxCell>
        <mxCell id="fyI6EhqjK9DCoRPXTvLA-12" value="&lt;font style=&quot;font-size: 12px&quot;&gt;Inicio de flujo&lt;br&gt;&lt;/font&gt;" style="text;strokeColor=none;fillColor=none;html=1;fontSize=24;fontStyle=1;verticalAlign=middle;align=left;spacing=2;strokeWidth=1;horizontal=1;fontColor=#999999;" parent="fyI6EhqjK9DCoRPXTvLA-15" vertex="1">
          <mxGeometry x="135" y="117" width="220" height="30" as="geometry" />
        </mxCell>
        <mxCell id="fyI6EhqjK9DCoRPXTvLA-13" value="" style="ellipse;html=1;shape=endState;fillColor=#000000;strokeColor=#ff0000;" parent="fyI6EhqjK9DCoRPXTvLA-15" vertex="1">
          <mxGeometry x="55" y="151" width="30" height="30" as="geometry" />
        </mxCell>
        <mxCell id="fyI6EhqjK9DCoRPXTvLA-14" value="&lt;font style=&quot;font-size: 12px&quot;&gt;Final de flujo&lt;br&gt;&lt;/font&gt;" style="text;strokeColor=none;fillColor=none;html=1;fontSize=24;fontStyle=1;verticalAlign=middle;align=left;spacing=2;strokeWidth=1;horizontal=1;fontColor=#999999;" parent="fyI6EhqjK9DCoRPXTvLA-15" vertex="1">
          <mxGeometry x="135" y="151" width="220" height="30" as="geometry" />
        </mxCell>
        <mxCell id="fLqlD2cx_nLfpuTeQDXq-7" value="" style="html=1;verticalAlign=bottom;endArrow=open;endSize=8;strokeColor=#ff0000;exitX=1;exitY=1;exitDx=0;exitDy=0;entryX=0;entryY=0.25;entryDx=0;entryDy=0;" parent="1" source="P6Ppndu3YUtAiaM16hDx-6" target="77KCPv3B4IZZ5Z66STRk-45" edge="1">
          <mxGeometry relative="1" as="geometry">
            <mxPoint x="450" y="480" as="targetPoint" />
            <mxPoint x="290" y="459.5" as="sourcePoint" />
          </mxGeometry>
        </mxCell>
        <mxCell id="meJ3Hm6bCnbv4KWAAB1v-5" value="&lt;font style=&quot;font-size: 11px&quot;&gt;&lt;span style=&quot;background-color: rgb(248 , 249 , 250)&quot;&gt;Cerrar Caso (Manual o Respuesta Analista)&lt;br&gt;caseMessageType = AU&lt;/span&gt;&lt;br style=&quot;background-color: rgb(248 , 249 , 250)&quot;&gt;&lt;span style=&quot;background-color: rgb(248 , 249 , 250)&quot;&gt;lynxResponseStatus: -0504,&lt;/span&gt;&lt;/font&gt;&lt;span style=&quot;background-color: rgb(248 , 249 , 250)&quot;&gt;-0513&lt;/span&gt;" style="edgeLabel;html=1;align=center;verticalAlign=middle;resizable=0;points=[];" parent="fLqlD2cx_nLfpuTeQDXq-7" vertex="1" connectable="0">
          <mxGeometry x="-0.1544" y="3" relative="1" as="geometry">
            <mxPoint x="-119" y="12" as="offset" />
          </mxGeometry>
        </mxCell>
        <mxCell id="meJ3Hm6bCnbv4KWAAB1v-1" value="ALERTA_RECIBIDA" style="swimlane;html=1;fontStyle=1;align=center;verticalAlign=middle;childLayout=stackLayout;horizontal=1;startSize=30;horizontalStack=0;resizeParent=0;resizeLast=1;container=0;fontColor=#000000;collapsible=0;rounded=1;arcSize=30;strokeColor=#ff0000;fillColor=#ffffc0;swimlaneFillColor=#ffffc0;dropTarget=0;" parent="1" vertex="1">
          <mxGeometry x="110" y="140" width="290" height="80" as="geometry" />
        </mxCell>
        <mxCell id="meJ3Hm6bCnbv4KWAAB1v-2" value="&lt;u&gt;Cuando Existe alerta:&lt;/u&gt; Resetea el estado a ALERTA_RECIBIDA, Sin importar estado Actual.&lt;br&gt;&lt;u&gt;Cuando No existe Alerta:&lt;/u&gt; Registra" style="text;html=1;strokeColor=none;fillColor=none;align=center;verticalAlign=middle;spacingLeft=4;spacingRight=4;whiteSpace=wrap;overflow=hidden;rotatable=0;fontColor=#000000;" parent="meJ3Hm6bCnbv4KWAAB1v-1" vertex="1">
          <mxGeometry y="30" width="290" height="50" as="geometry" />
        </mxCell>
        <mxCell id="tDKdMyrOGzaEZXIqc7HQ-1" value="TARJETA_CON_BLOQUEO_PREVIO" style="swimlane;html=1;fontStyle=1;align=center;verticalAlign=middle;childLayout=stackLayout;horizontal=1;startSize=30;horizontalStack=0;resizeParent=0;resizeLast=1;container=0;fontColor=#ffffff;collapsible=0;rounded=1;arcSize=30;strokeColor=#006EAF;fillColor=#1ba1e2;swimlaneFillColor=#ffffc0;dropTarget=0;" parent="1" vertex="1">
          <mxGeometry x="160" y="410" width="220" height="70" as="geometry" />
        </mxCell>
        <mxCell id="tDKdMyrOGzaEZXIqc7HQ-2" value="Tarjeta esta bloqueada&lt;br&gt;CodLynx: 0081 [BFBP]" style="text;html=1;strokeColor=none;fillColor=none;align=center;verticalAlign=middle;spacingLeft=4;spacingRight=4;whiteSpace=wrap;overflow=hidden;rotatable=0;fontColor=#000000;" parent="tDKdMyrOGzaEZXIqc7HQ-1" vertex="1">
          <mxGeometry y="30" width="220" height="40" as="geometry" />
        </mxCell>
        <mxCell id="tDKdMyrOGzaEZXIqc7HQ-3" value="Alerta no tiene nro telefono&lt;br&gt;CodLynx: -0510 [BICC]" style="text;html=1;strokeColor=none;fillColor=none;align=center;verticalAlign=middle;spacingLeft=4;spacingRight=4;whiteSpace=wrap;overflow=hidden;rotatable=0;fontColor=#000000;" parent="tDKdMyrOGzaEZXIqc7HQ-1" vertex="1">
          <mxGeometry y="70" width="220" as="geometry" />
        </mxCell>
        <mxCell id="tDKdMyrOGzaEZXIqc7HQ-5" style="edgeStyle=none;rounded=0;orthogonalLoop=1;jettySize=auto;html=1;strokeColor=#FF1919;" parent="1" source="tDKdMyrOGzaEZXIqc7HQ-2" target="77KCPv3B4IZZ5Z66STRk-59" edge="1">
          <mxGeometry relative="1" as="geometry" />
        </mxCell>
        <mxCell id="8vhrprMVn3tqKUa7ReqO-1" value="NO_CONTACTADO_X_SEGMENTO" style="swimlane;html=1;fontStyle=1;align=center;verticalAlign=middle;childLayout=stackLayout;horizontal=1;startSize=30;horizontalStack=0;resizeParent=0;resizeLast=1;container=0;collapsible=0;rounded=1;arcSize=30;strokeColor=#006EAF;fillColor=#1ba1e2;swimlaneFillColor=#ffffc0;dropTarget=0;fontColor=#ffffff;" parent="1" vertex="1">
          <mxGeometry x="880" y="420" width="250" height="70" as="geometry" />
        </mxCell>
        <mxCell id="8vhrprMVn3tqKUa7ReqO-2" value="Excluido por segmento parametrizado&lt;br&gt;Cod Lynx: -0514 [BCCC] (Temporal)" style="text;html=1;strokeColor=none;fillColor=none;align=center;verticalAlign=middle;spacingLeft=4;spacingRight=4;whiteSpace=wrap;overflow=hidden;rotatable=0;fontColor=#000000;" parent="8vhrprMVn3tqKUa7ReqO-1" vertex="1">
          <mxGeometry y="30" width="250" height="40" as="geometry" />
        </mxCell>
        <mxCell id="8vhrprMVn3tqKUa7ReqO-3" value="ALERTA_LIMITE_DIARIO_SMS" style="swimlane;html=1;fontStyle=1;align=center;verticalAlign=middle;childLayout=stackLayout;horizontal=1;startSize=30;horizontalStack=0;resizeParent=0;resizeLast=1;container=0;collapsible=0;rounded=1;arcSize=30;strokeColor=#006EAF;fillColor=#1ba1e2;swimlaneFillColor=#ffffc0;dropTarget=0;fontColor=#ffffff;" parent="1" vertex="1">
          <mxGeometry x="1040" y="510" width="250" height="70" as="geometry" />
        </mxCell>
        <mxCell id="8vhrprMVn3tqKUa7ReqO-4" value="Supera el limite de sms diario parametrizado&lt;br&gt;Cod Lynx: -0514 [BCCC] (Temporal)" style="text;html=1;strokeColor=none;fillColor=none;align=center;verticalAlign=middle;spacingLeft=4;spacingRight=4;whiteSpace=wrap;overflow=hidden;rotatable=0;fontColor=#000000;" parent="8vhrprMVn3tqKUa7ReqO-3" vertex="1">
          <mxGeometry y="30" width="250" height="40" as="geometry" />
        </mxCell>
        <mxCell id="8vhrprMVn3tqKUa7ReqO-9" style="edgeStyle=none;rounded=0;orthogonalLoop=1;jettySize=auto;html=1;strokeColor=#FF1919;exitX=0.25;exitY=1;exitDx=0;exitDy=0;entryX=0.5;entryY=0;entryDx=0;entryDy=0;" parent="1" source="fLqlD2cx_nLfpuTeQDXq-1" target="8vhrprMVn3tqKUa7ReqO-1" edge="1">
          <mxGeometry relative="1" as="geometry">
            <mxPoint x="1189" y="400" as="sourcePoint" />
            <mxPoint x="1261" y="430" as="targetPoint" />
          </mxGeometry>
        </mxCell>
        <mxCell id="8vhrprMVn3tqKUa7ReqO-11" style="edgeStyle=none;rounded=0;orthogonalLoop=1;jettySize=auto;html=1;strokeColor=#FF1919;exitX=0.833;exitY=1.037;exitDx=0;exitDy=0;entryX=0.5;entryY=0;entryDx=0;entryDy=0;exitPerimeter=0;" parent="1" source="fLqlD2cx_nLfpuTeQDXq-1" target="8vhrprMVn3tqKUa7ReqO-3" edge="1">
          <mxGeometry relative="1" as="geometry">
            <mxPoint x="1189" y="400" as="sourcePoint" />
            <mxPoint x="1261" y="430" as="targetPoint" />
          </mxGeometry>
        </mxCell>
        <mxCell id="8vhrprMVn3tqKUa7ReqO-12" style="edgeStyle=none;rounded=0;orthogonalLoop=1;jettySize=auto;html=1;strokeColor=#FF1919;exitX=0.25;exitY=1;exitDx=0;exitDy=0;entryX=0.488;entryY=0.567;entryDx=0;entryDy=0;entryPerimeter=0;" parent="1" source="8vhrprMVn3tqKUa7ReqO-2" target="77KCPv3B4IZZ5Z66STRk-59" edge="1">
          <mxGeometry relative="1" as="geometry">
            <mxPoint x="980" y="570" as="sourcePoint" />
            <mxPoint x="1052" y="600" as="targetPoint" />
          </mxGeometry>
        </mxCell>
        <mxCell id="8vhrprMVn3tqKUa7ReqO-13" style="edgeStyle=none;rounded=0;orthogonalLoop=1;jettySize=auto;html=1;strokeColor=#FF1919;fontStyle=1;exitX=0.5;exitY=1;exitDx=0;exitDy=0;entryX=0.496;entryY=0.317;entryDx=0;entryDy=0;entryPerimeter=0;" parent="1" source="8vhrprMVn3tqKUa7ReqO-4" target="77KCPv3B4IZZ5Z66STRk-59" edge="1">
          <mxGeometry relative="1" as="geometry">
            <mxPoint x="1115" y="620" as="sourcePoint" />
            <mxPoint x="1187" y="650" as="targetPoint" />
          </mxGeometry>
        </mxCell>
        <mxCell id="8vhrprMVn3tqKUa7ReqO-14" style="edgeStyle=none;rounded=0;orthogonalLoop=1;jettySize=auto;html=1;strokeColor=#FF1919;exitX=0.75;exitY=1;exitDx=0;exitDy=0;" parent="1" source="77KCPv3B4IZZ5Z66STRk-30" target="77KCPv3B4IZZ5Z66STRk-59" edge="1">
          <mxGeometry relative="1" as="geometry">
            <mxPoint x="1209" y="420" as="sourcePoint" />
            <mxPoint x="1281" y="450" as="targetPoint" />
          </mxGeometry>
        </mxCell>
      </root>
    </mxGraphModel>
  </diagram>
</mxfile>
